<svg fill="none" height="439" viewBox="0 0 439 439" width="439" xmlns="http://www.w3.org/2000/svg" xmlns:xlink="http://www.w3.org/1999/xlink"><clipPath id="a"><path d="m0 0h439v439h-439z"/></clipPath><g clip-path="url(#a)"><path d="m58.8286 146.443v-29.229h87.7854v29.229zm0-58.5573v-29.2285h87.7854v29.2285zm87.7854 87.8853v-29.328h29.329v-29.229h-29.329v-29.3283h29.329v-29.2285h-29.329v-29.3286h-117.114v146.4424zm-146.342516 29.229v-205h175.671516v29.3286h29.328v146.4424h-29.328v29.229zm351.342516-29.229v-87.8853h29.229v-29.2285h29.328v-29.3286h-29.328v29.3286h-29.229v29.2285h-29.328v-29.2285h-29.229v-29.3286h-29.328v29.3286h29.328v29.2285h29.229v87.8853zm-58.557 29.229v-87.786h-29.328v-29.3283h-29.229v-87.8857h87.786v29.3286h29.328v-29.3286h87.886v87.8857h-29.329v29.3283h-29.328v87.786zm-117.114 204.771v-29.328h-29.329v-29.229h-29.228v-29.328h29.228v-29.229h29.329v-29.328h-29.329v29.328h-29.228v29.229h-29.3289v-29.229h-29.2285v-29.328h-29.3286v29.328h29.3286v29.229h29.2285v29.328h-29.2285v29.229h-29.3286v29.328h29.3286v-29.328h29.2285v-29.229h29.3289v29.229h29.228v29.328zm-175.671516 29.229v-87.786h29.228516v-29.328h-29.228516v-87.886h87.785616v29.329h29.3289v-29.329h87.885v87.886h-29.328v29.328h29.328v87.786h-87.885v-29.229h-29.3289v29.229zm409.899516-29.229v-58.557h-29.328v29.229h-87.786v-117.114h-29.328v146.442zm-175.671 29.229v-205h87.786v117.214h29.328v-29.328h87.886v117.114z" fill="#fff"/></g></svg>